<svg version="1" xmlns="http://www.w3.org/2000/svg" width="466.667" height="466.667" viewBox="0 0 350.000000 350.000000"><path d="M162.6 76.2c.3.5 1 .6 1.5.3 1.3-.9 1.1-1.2-.6-1.2-.8 0-1.2.4-.9.9zM173.5 80c.3.5.8 1 1.1 1 .2 0 .4-.5.4-1 0-.6-.5-1-1.1-1-.5 0-.7.4-.4 1zM159.9 80.2c-.5 1.8-.6 3.8-.1 3.4.7-.8 1.2-3.6.6-3.6-.2 0-.4.1-.5.2zM81 82c0 .5.5 1 1.1 1 .5 0 .7-.5.4-1-.3-.6-.8-1-1.1-1-.2 0-.4.4-.4 1zM202.6 82.2c.3.5 1 .6 1.5.3 1.3-.9 1.1-1.2-.6-1.2-.8 0-1.2.4-.9.9zM217.5 82c-.3.5-.1 1 .4 1 .6 0 1.1-.5 1.1-1 0-.6-.2-1-.4-1-.3 0-.8.4-1.1 1zM257.5 82c-.3.5-.1 1 .4 1 .6 0 1.1-.5 1.1-1 0-.6-.2-1-.4-1-.3 0-.8.4-1.1 1zM270 82c-1.2.7-1 .9.7.7 1.2 0 1.9-.5 1.7-.9-.6-1-.6-1-2.4.2zM118.4 84.2l-1.9 2.3 2.3-1.9c2.1-1.8 2.7-2.6 1.9-2.6-.2 0-1.2 1-2.3 2.2zM227.5 83.1c-.4.6-.5 1.2-.2 1.5.2.3.7-.2 1-1.1.7-1.7.1-2-.8-.4zM85.6 84.7c-.6 1.4-.5 1.5.5.6.7-.7 1-1.5.7-1.8-.3-.3-.9.2-1.2 1.2zM92 83.4c0 .2.8 1 1.8 1.7 1.5 1.3 1.6 1.2.3-.4S92 82.6 92 83.4zM133.6 84.7c-.6 1.4-.5 1.5.5.6.7-.7 1-1.5.7-1.8-.3-.3-.9.2-1.2 1.2zM142.5 84.1c-.3.4.2.6 1 .5 2.1-.3 2.8-1.3 1-1.3-.9 0-1.8.4-2 .8zM148 84c-.9.6-1 1-.3 1 .6 0 1.5-.5 1.8-1 .8-1.2.4-1.2-1.5 0zM229.6 84.7c-.6 1.4-.5 1.5.5.6.7-.7 1-1.5.7-1.8-.3-.3-.9.2-1.2 1.2zM243 83.9c0 .6.4 1.3 1 1.6.6.3.7-.1.4-.9-.7-1.8-1.4-2.1-1.4-.7zM252 83.4c0 .2.8 1 1.8 1.7 1.5 1.3 1.6 1.2.3-.4s-2.1-2.1-2.1-1.3zM263.6 83.9c-.3.5.2 1.5 1.2 2.2 1.5 1.2 1.6 1.2.5-.2-.7-.9-1-1.9-.6-2.2.3-.4.4-.7 0-.7-.3 0-.8.4-1.1.9zM276.6 84.2c.3.5 1 .6 1.5.3 1.3-.9 1.1-1.2-.6-1.2-.8 0-1.2.4-.9.9zM103.5 84.9c-.3.5-.2 1.2.3 1.5.5.3.9-.1.9-.9 0-1.7-.3-1.9-1.2-.6zM61.4 85.8c.4.3 1.4.7 2.2.8.9.1 1.3 0 1-.4-.4-.3-1.4-.7-2.2-.8-.9-.1-1.3 0-1 .4z"/><path d="M91.3 86.4c1.6 2.2.3 2.6-7.9 2.6-6.5 0-8.3-.3-7.8-1.3.6-.9.5-.9-.7-.1-.8.7-5.8 1.2-11.8 1.3-5.8.1-10.7.4-11 .6-.8.4-.4 29.6.4 30.3.3.3 3 .4 6.1.3 3.4-.2 6.1.2 7.1 1.1.9.7 1.4.8 1 .2-.4-.8 2.9-1.1 11.5-1 11.3.1 12.1.2 12.4 2.1.2 1.8.1 1.8-.9.4-1.1-1.4-1.5-1.3-3.7.8-2.5 2.3-4.6 3.1-3.5 1.3.3-.6-.1-1.3-.9-1.6-.9-.3-1.4-1-1.1-1.4 1.2-2-2.6-.1-4.4 2.1-1.8 2.3-1.8 2.5-.1 2.5 1.1 0 1.6-.5 1.2-1.5-.3-.9-.1-1.2.6-.7.8.5 1 .2.5-.9-.5-1.5-.3-1.5 1.5-.4 1.1.7 1.9 1.6 1.6 2-.7 1.2 1.5 2.1 2.9 1.2 2.3-1.5 6.4-1.1 6.4.6 0 2.1-1.7 4.2-2.8 3.5-.5-.3-.9 0-.9.6 0 .7.8.9 2 .5 1.4-.5 2-.2 2 1 0 .9-.4 1.3-1 1-.5-.3-1-.1-1 .4 0 .6.3 1.1.8 1.1.4 0 .8 2 .9 4.5.2 3.4-.1 4.4-1 3.8-.9-.5-.9-.3-.1.8 1.4 1.8 1.9 14.3.5 13.5-.5-.4-1.3-.2-1.6.4-.4.6-.1.9.7.8 1.1-.2 1.3 7.2 1.3 41 0 22.6.2 40.8.3 40.2.2-.5 3.3-1 6.8-1 4.9 0 6.3.3 5.8 1.3-.6.9-.4.9.7 0 1.7-1.7 9.6-1.7 10.2-.1.4 1 .6 1 .6 0 .1-.8 2.4-1.2 8.1-1.2h8v-9.6c0-7.3.3-9.4 1.3-8.8.6.4.9.4.5-.1-.4-.4-.2-1.5.5-2.4 1.1-1.4 1-1.4-.5-.3-1.6 1.3-1.7.9-1.6-5.5.1-3.7.6-7.1 1.2-7.5.8-.5.7-.8-.1-.8-.7 0-1.3-.9-1.3-2.1 0-1.3.4-1.8 1.3-1.3 1 .6 1 .4 0-.7-.7-.7-1.3-2.6-1.3-4.2 0-2 .4-2.6 1.3-2.1 1 .6 1 .4 0-.7-1.5-1.5-1.8-5.3-.4-4.4.5.3 1.3.1 1.6-.5.4-.6.1-.9-.7-.8-.8.2-1.3-1.2-1.5-4.6-.3-4.2-.1-4.8 1.4-4.2 1.7.6 1.7.5.1-.8-2.1-1.6-2.3-4.6-.5-6.5.6-.8.7-1.1.1-.8-.7.4-1.1-.7-1.2-2.9-.1-1.9.3-3.2.8-2.9.5.3 1.2.1 1.5-.5.4-.6.1-.9-.7-.8-.8.2-1.3-.9-1.5-3-.1-2.9.1-3.2 1.5-2 1.4 1.1 1.4 1 0-.8-1.9-2.2-2.4-3.9-.9-2.9.5.3 1.3.1 1.6-.5.4-.6.1-.9-.6-.8-.6.2-1.3-1-1.6-2.5-.2-1.6 0-2.6.5-2.3.5.3.9-.1.9-.9s-.4-1.2-.9-.9c-.5.4-.8-.2-.6-1.2.2-1.1 1-2.2 1.8-2.6 1.2-.5 1.2-.7-.2-.7-2.6-.1-2.2-7.1.5-9.3 1.7-1.3 1.9-1.9.9-3-.6-.8-.9-1.8-.5-2.1.3-.4.1-.7-.6-.7-.8 0-1.1.7-.7 1.5.3.8.1 1.5-.5 1.5s-.9-1-.7-2.3c.2-1.4.9-2.1 2-1.9.9.1 1.9-.2 2.3-.8.4-.6 1.3-.2 2.4 1.1 1.4 1.7 2 1.9 2.6.9.5-.8.4-1.1-.2-.7-.6.4-1.4 0-1.7-.9-.5-1.3-.2-1.5 1.5-1.1 2.5.7 4.9-.1 4.9-1.6 0-.7-.4-.7-1.2.1-1.7 1.7-3.3 1.5-1.8-.3.9-1 .9-1.5.1-1.5-.6 0-1.1.4-1.1.9 0 1.7-4 1.9-5 .3-.8-1.4-.9-1.4-1-.2 0 1.3-.1 1.3-1 0-.5-.8-1-1-1-.5 0 .6.5 1.6 1.1 2.2.9.9.7 1.2-.9 1-1.5-.1-2-.7-1.8-2.1.2-1.6 1.1-2.1 4.1-2.2 2.5-.1 3.3.1 2.4.7-.9.6-1 .9-.2.9.6 0 1.4-.4 1.7-.9.8-1.3 15.6-1 15.6.3 0 .8.3.8.8 0 .9-1.3 11.2-1.6 11.2-.3 0 .5 1 .3 2.3-.6 1.3-.8 2.6-1.3 2.8-1 .3.2.6-.5.6-1.7.3-2.8.9-3.2 3-1.7 2.6 1.9 3 14.1.4 13.7-.9-.2-2.4-1.4-3.3-2.8-1-1.4-1.8-2.1-1.8-1.5.1 1.4 2.9 5 4 5.1.6.1 1.4.2 1.9.3 1.4.2.7 10.5-.8 11.7-1.1.9-1.2 1.2-.1 1.9.9.5 1.1.4.6-.3-.4-.7-.2-1.2.4-1.2 1.3 0 .9 4.2-.5 5.2-.6.5-.6.8.2.8.9 0 1.2 9.2 1.1 38.2-.1 35.3 0 38.6 1.7 41.8 2.3 4.5 6.1 7.8 10 8.6 1.6.3 4.1 1.6 5.5 2.8 1.5 1.3 1.9 1.5 1.1.4-1.2-1.6-1.1-1.8 1.1-1.8 1.3 0 3 .6 3.7 1.2 1.1 1 1.3 1 .7 0-.5-.8.1-1.2 1.9-1.2 1.4 0 2.4.4 2 .9-.3.5-.1 1.3.5 1.6.6.4.9.1.8-.6-.2-.7.6-1.5 1.6-1.7 1.5-.3 1.7 0 1.2 1.4-.6 1.8-.5 1.8.8.2 1.5-2 3.1-2.4 2-.6-.5.9-.2.8.9-.1 2.3-1.8 3.4-.7 1.6 1.6-1.3 1.6-1.2 1.7.3.5 1-.8 2.3-1 3-.6 1 .6 1.1.5.1-.7-1.1-1.4-.7-1.6 3.3-1.8 2.6 0 5.4.4 6.2 1.1 1.2 1 1.4 1 .9.1-.6-.9.3-1.2 3-1 2.5.2 3.7.7 3.5 1.5-.1.8.2 1.1.8.7.6-.3.8-1 .5-1.4-.2-.5 2.9-.8 7-.8 7.8.1 9 .7 5.3 2.5-1.8.8-1.9 1.1-.6 1.1.9.1 2.3-.7 3-1.7 1.6-2.1 3.5-2.5 3.5-.7 0 .8-.4 1.2-.9.9-.4-.3-.8 0-.8.5 0 .6.5 1.1 1 1.1 1.4 0 1.2 2.7-.2 3.3-1 .4-1 .6 0 .6.8.1 1.2 1.8 1.2 5.2 0 2.7-.4 4.8-.8 4.5-.5-.3-.9.1-.9.9 0 1.1.4 1.2 1.3.4 1.4-1.2 5.7-.2 4.9 1.1-.3.4.4.6 1.5.3s2 0 2 .6.3 1 .8.9c1.9-.6 7.1 1.3 6.8 2.4-.1.7-.1 1 .1.6.7-1.2 3.3-.9 3.3.3 0 .5.4.8.8.5.5-.3 3.3.4 6.2 1.5 2.9 1.1 5.4 1.8 5.6 1.6.3-.2.5-5 .5-10.6 0-7.6.3-10 1.2-9.4.9.5.9.3.1-.8-.6-.8-1.1-3.4-1-5.9.2-3.7.5-4.4 2-4.2 1.1.2 1.5-.1 1.1-.7-.3-.6.1-1.1 1-1.1 1 0 1.3-.5.9-1.2-.5-.7-.2-.9.9-.5s1.4.2 1-.9c-.3-.7 0-1.4.6-1.4s1-.6.9-1.3c-.2-.6.3-1.1 1.1-.9 1.2.3 1.2 0 .2-1.2-.7-.8-.8-1.7-.2-2 .5-.3.7-1.5.4-2.6-.3-1.1.1-2.8.8-3.7.8-1 .9-1.4.2-1-1.7 1.1-1.8-20.4 0-21.5.9-.6.9-.8 0-.8s-1.3-1.7-1.3-5 .4-5 1.3-5c.8 0 .9-.2.1-.8-1.3-.8-1.8-13.6-.5-12.8.5.3 1.5-.2 2.2-1.2 1.3-1.5 1.2-1.6-.3-.4-.9.7-1.9.9-2.1.4-1-1.4-.7-23.3.2-22.8.5.3 1.5-.2 2.2-1.2 1.2-1.5 1.2-1.6-.2-.5-2.2 1.8-2.9.7-2.9-4.4 0-2.8.4-4.3 1.3-4.3s.9-.2-.1-.9c-1.7-1-1.3-12.6.5-12.6.6 0 1.5-.3 1.9-.7.3-.4-.3-.6-1.5-.3-2.2.4-2.9-1-.8-1.8 1-.4 1-.6 0-.6-.9-.1-1.3-2.5-1.3-8.5 0-5.2-.6-9.7-1.5-12-1.7-4-6.5-9.6-8.4-9.6-.6 0-1.1-.4-1.1-.8 0-.9-1.6-1.1-14.3-1.1-6.4-.1-9.6-.4-9.2-1.1.3-.5.1-1-.4-1-.6 0-1.1.4-1.1.9s-1.1.8-2.5.8c-1.3 0-2.3-.3-2-.7.2-.3-.2-.7-1-.7s-1.2.4-.9.9c.3.4.1.8-.5.8-.5 0-1.2-.6-1.4-1.3-.4-1-.6-1-.6 0-.1.8-1.5 1.3-3.7 1.3-1.9 0-3.3-.4-3-.8.3-.5-.1-.9-.9-.9s-1.2.4-.9.9c.3.4-.9.8-2.5.8-1.8 0-3.1-.5-3.1-1.3s-.3-.9-.8-.1c-.9 1.4-4.5 1.4-5.4 0-.5-.8-.8-.7-.8.1 0 .7-.5 1.3-1.1 1.3-.5 0-.7-.6-.3-1.3.6-1 .4-1-.7 0-.7.7-1.9 1.3-2.7 1.3-.8 0-1-.5-.6-1.3.5-.8.2-.8-.9.2-1.1.9-1.7 1-1.7.2 0-.6-.5-1.1-1.1-1.1-.5 0-.8.4-.5.9.3.4-3.5.8-8.4.8-5.8-.1-8.7-.5-8.3-1.2.4-.5.3-.7-.2-.3-.4.4-1.5.2-2.4-.5-1.4-1.1-1.4-1-.2.5 1.2 1.6 1.1 1.8-.8 1.8-1.5 0-2-.4-1.5-1.3.6-.9.5-.9-.7 0-.8.6-3 1.2-4.9 1.4-1.9.2-4.4.9-5.6 1.6-1.1.7-2.4 1-2.7.6-.4-.3-.7-.1-.7.6s-.5.9-1.2.5c-.6-.4-.8-.3-.4.4.3.5-.5 2.4-1.9 4s-2.5 4-2.5 5.2c0 1.1-.4 1.9-.9 1.5-.5-.3-1.2-.1-1.6.5-.3.5-.1 1 .5 1s1 2 .9 5c-.2 5-1.2 7-2.4 5-1-1.7-2.5-1.1-3.4 1.2-.6 1.6-.8-.3-.8-5.7.1-4.4.6-8.3 1.1-8.7.6-.4 2.2-.5 3.6-.3 1.4.3 1.8.2 1-.1-.8-.4-2.1-1.3-2.7-2.2-1.2-1.4-1.3-1.4-1.3.1 0 3.6-1.6 1.5-1.9-2.4-.1-2.4.2-3.8.8-3.5.5.3.4-.5-.2-1.9-1.2-2.4-1.4-2.5-13.2-2.6-6.6-.1-13.3 0-15 .1-2.7.2-2.8.1-1.5-1.7 1.3-1.6 1.3-1.7-.1-.6-.9.7-2 .9-2.4.5-.5-.4-.5-.1-.1.5.4.8.2 1.3-.7 1.3-2.2 0-2.8-1.2-1.4-2.9 1.1-1.4 1-1.4-.5-.2-1 .7-1.5 1.7-1.2 2.2.3.5-.2.9-1.1.9-.9 0-1.4-.4-1.1-.8.3-.5-.1-.9-.9-.9s-1.2.4-.9.9c.3.4-.9.8-2.5.8-1.8 0-3.1-.5-3.1-1.3s-.3-.8-.9.2c-.8 1.3-1.2 1.3-2.7 0-1.1-.9-1.5-.9-1-.2.4.7.3 1.3-.3 1.3-.5 0-1.2-.6-1.4-1.3-.4-1-.6-1-.6 0-.1.7-.6 1.3-1.2 1.3-.5 0-.7-.6-.3-1.3.6-.9.5-.9-.7 0-1.7 1.3-15.2 1.6-14.4.3.3-.5.1-1.2-.5-1.5-.6-.4-.9-.1-.8.6.2.6-.3 1.4-1.1 1.7-.8.2-1.1 0-.8-.5.3-.5 0-1-.8-1s-1.2.4-.9.9c.8 1.3-1 1-2.5-.5-1.1-1-1.3-1-.7 0 1.1 1.9-.3 1.6-2.2-.5-1-.9-1.4-1.3-.9-.8zm142.3 35.9c1-.3 1.2 0 .9 1-.4.8.2 2.3 1.2 3.2 1 1 1.8 2.3 1.8 2.9 0 2 4.6 1.4 5.4-.6.7-1.9.8-1.9 2.4.6 1 1.4 2.3 2.6 3 2.5.8 0 .8-.2-.2-.6-1.1-.4-1.1-.7 0-1.3 1.8-1.1-.8-4.3-2.9-3.5-1 .3-1.2 0-.9-1 .4-.8.2-1.7-.4-2-.5-.4-.9-.3-.8.2.6 2.2-1.4 5.9-3.2 6-1.1.1-1.7-.3-1.3-.8.3-.5-.5-1.8-1.8-2.8-2.8-2.4-2-3.3 3.1-3.7 2.2-.1 4.5-.5 5-.8.5-.4 1.2-.3 1.5.2.3.5 2 .8 3.9.7l3.4-.2-.1 8.9c-.1 6.2-.4 8.7-1.3 8.4-1.2-.5-1.2 1.9.2 3.1.4.4.5.2.1-.5-.4-.6-.2-1.2.3-1.2.8 0 1.1 7.5 1 23.4l-.1 23.3-2.4 1.1c-1.5.8-2.2 1.7-1.8 2.7.3.8.8 1.5 1.1 1.5.3 0 .2-.7-.1-1.6-.5-1.2-.2-1.5.9-1 .9.3 1.3.2 1-.4-.3-.6-.1-1 .4-1 1.5 0 1.4 3-.1 3.1-1 0-1 .2 0 .6 1.6.6 1.6 3.3-.1 3.3-.7 0-1.9.6-2.5 1.2-.7.7-2 1.3-3 1.3-1.1 0-1.6.7-1.5 2 .2 2-.9 2.3-8.9 2.6-1 0-2 .4-2.3.8-.5.9 3.8.6 5.4-.4.6-.3 1.1-.1 1.1.6 0 .8.4.8 1.6-.2 1.2-1 1.7-1 2.3 0 .6.9 1 .8 1.5-.6.7-1.7.8-1.7 2 0 1.8 2.3 3.5.3 3-3.6-.1-1.6.2-2.7 1-2.7s1.2 1.6 1.2 4.4c-.1 2.4-.4 4.2-.8 4-.3-.2-.9 0-1.3.6s-1.1.8-1.6.4c-1.6-.9-10-1.1-10.5-.2-.3.5-1.1.5-1.7.1-1.8-1.1-7.7-1-7.7.2 0 .5-.4.3-.9-.5-1.3-1.9-.3-3.3 1.6-2.5.9.3 2.4-.2 3.4-1.1 2.2-1.9 2.5-3.4.7-3.4-.6 0-.9.3-.5.6.3.4-.1 1.3-.9 2.1-2 2-3.1.8-1.3-1.4.8-.9.9-1.4.3-1-.7.4-1.4 0-1.8-.8-.6-1.8-3.6-.9-3.6 1.1 0 1.7-1.2 1.8-2.8.2-.7-.7-1.2-.8-1.3-.2 0 .5-.2 1.9-.3 3.1-.2 1.2.2 1.9.7 1.6.6-.3.7-.1.3.5-1.7 2.7-2.4.7-2.3-6.8 0-4.4.3-8 .7-8 .4 0 .6 1.1.5 2.4-.2 1.8.2 2.3 1.8 2.2 2-.1 3.5-3.6 1.5-3.6-.6 0-.8.7-.4 1.5.6 1.8-1 2-2 .3-.4-.6.2-1.7 1.2-2.5 1.4-1.1 1.5-1.4.4-1.3-3 .4-4 0-4-1.9 0-1 .7-2.2 1.6-2.5 1.2-.5 1.4-.1 1 1.7-.3 1.2-.3 1.6 0 .9.3-.6 1-1 1.4-.7.5.3 1.2 0 1.6-.6.4-.7.3-.9-.3-.6-.6.4-1.3 0-1.7-.8-.3-.9-1.2-1.2-2.3-.8-1.6.6-1.7.5-.3-1.2.8-1 1-1.6.4-1.2-.7.4-1.1-.9-1.2-3.8-.2-3 .2-4.5 1-4.5.9 0 1-.3.2-.8-1.5-1-1.5-16.4 0-15.5.6.3.5 0-.1-.8-1.5-1.6-1.7-6.9-.3-6.9.6 0 1-.5 1-1.1 0-.5-.4-.8-.8-.5-.5.3-.9-.8-1-2.5 0-1.6.4-2.7.9-2.4.5.4.9.1.9-.4 0-.6-.4-1.1-.9-1.1-1.1 0-.9-1.9.3-3.9.6-1 .5-1.2-.2-.7-.7.4-1.2.1-1.2-.8 0-1 .6-1.3 1.8-1 1.5.5 1.5.4.1-.8-1.1-.9-1.6-2.8-1.5-6.4l.1-5 3.7-.1c2.1 0 4.3.6 4.9 1.3 1.1 1.4-.1 2-1.4.7-.4-.3-1.9-.8-3.4-.9-1.8-.2-2.3 0-1.5.5 1.1.7 1.1.9-.1 1.4-.8.3-1.3 1.6-1.3 2.9.2 2.6 2.6 6.8 4 6.8.4 0 .2-.8-.5-1.7-1.2-1.4-1.2-1.6.2-1.1.9.3 2.2.2 3-.3.9-.6.3-.8-1.9-.5-1.8.2-3.5 0-3.7-.4-.7-1.1 2.2-2 4.3-1.4 1.4.5 1.5.4.2-.5-.8-.6-2.2-.8-3.1-.6-1 .3-1.6-.1-1.6-1 0-1 .6-1.4 1.5-1 .7.3 1.9.2 2.5-.2 2.2-1.4 4.8-1 5.8.9.5 1 1.4 1.8 2 1.8.5 0 0-1-1.1-2.3-2.5-2.6-5.1-7-3-5 .7.6 1.9.9 2.6.6zM89 124c0 .5-.5 1-1.1 1-.5 0-.7-.5-.4-1 .3-.6.8-1 1.1-1 .2 0 .4.4.4 1zm138.5 1c-.3.5-1.2 1-1.8 1-.7 0-.6-.4.3-1 1.9-1.2 2.3-1.2 1.5 0zm20 2.9c.3.5.1 1.2-.4 1.5-.5.3-1.1-.1-1.5-.9-.6-1.6.9-2.1 1.9-.6zM133 132c-.8.5-1.7.7-1.9.4-.3-.3.1-.9.9-1.4.8-.5 1.7-.7 1.9-.4.3.3-.1.9-.9 1.4zm95.9 70.2c-1.2 1-1.9 2.4-1.6 3.2.4 1 .1 1.3-.9.9-1.3-.5-1.6-1.1-1.3-2.9 0-.4-.5-1.1-1.3-1.6-.9-.7-.7-.8.7-.4 1.1.3 2.7.1 3.5-.4.8-.5 1.1-1 .7-1-.5 0-.5-.5-.1-1.1.4-.8.9-.7 1.5.2.6 1 .2 2-1.2 3.1zm22.1-2.1c0 .5-.6.9-1.2.9-.9 0-.8.4.2 1 .8.5 1.1 1 .5 1-1.1-.1-4.5-2.5-4.5-3.2 0-.3 1.1-.6 2.5-.6s2.5.4 2.5.9z"/><path d="M245.5 123.1c1 2.6 4.5 4.2 6.1 2.8 1.6-1.3 1.2-2.2-1.1-2.5-.8-.1-1.3.2-.9.7.9 1.5-.8 1-2.8-.8-1.4-1.3-1.8-1.3-1.3-.2zM237.7 123.7c-.3.5.3 1.4 1.3 2.1 1.5.9 1.9.8 2.4-.4.9-2.4.7-3.1-.4-1.4-.8 1.2-1.1 1.3-1.9.1-.5-.7-1.1-.9-1.4-.4zM230.2 129.2c1.1 1.1 2.3 1.6 2.6 1.2.4-.3.1-.9-.6-1.1-.6-.3-1-.8-.8-1.2.3-.4-.4-.7-1.4-.8-1.8-.2-1.8-.1.2 1.9zM250.9 128.7c-1.1 1.3-1.1 1.7-.1 2 .6.3.9 1 .6 1.5-.4.7-.2.8.5.4.8-.6.9-1.2.2-2-.7-.9-.7-1.6.1-2.4.7-.7.9-1.2.6-1.2-.3 0-1.2.7-1.9 1.7zM234 132c0 .5.7.7 1.5.4.8-.4 1.5-.8 1.5-1 0-.2-.7-.4-1.5-.4s-1.5.4-1.5 1zM244 133c.9 1.7 3 2 3 .4 0-.3-.4-.2-1 .1-.5.3-1-.1-1-.9 0-.9-.5-1.6-1-1.6-.7 0-.7.7 0 2zM231.6 133.3c.3 1 .9 1.5 1.2 1.2.3-.3 0-1.1-.7-1.8-1-.9-1.1-.8-.5.6zM239 132.4c0 .2.6.9 1.4 1.5 1.1.9 1.6.9 2.2 0 .4-.8.3-.9-.4-.5s-1.2.2-1.2-.3c0-.6-.4-1.1-1-1.1-.5 0-1 .2-1 .4zM229.2 133.5c.4.4.1 1.4-.7 2.2-.8.8-1.5 1.9-1.5 2.5 0 .6.1.9.3.7.1-.2 1-1.4 2-2.6 1.5-1.7 1.6-2.3.5-2.9-.7-.4-1-.4-.6.1zM251 134.9c0 .6.4 1.3 1 1.6.6.3.7-.1.4-.9-.7-1.8-1.4-2.1-1.4-.7zM235.5 136c-.3.5-.1 1 .4 1 .6 0 1.1-.5 1.1-1 0-.6-.2-1-.4-1-.3 0-.8.4-1.1 1zM243 136c0 .5.5 1 1.1 1 .5 0 .7-.5.4-1-.3-.6-.8-1-1.1-1-.2 0-.4.4-.4 1zM249.4 136.6c.5 1.2.1 1.4-1.7 1-1.2-.3-1.6-.3-.9 0 .6.3.9 1 .6 1.6-.4.6.2.6 1.4-.1 1.8-1 2.2-4.1.5-4.1-.3 0-.2.7.1 1.6zM229.5 137.9c-.3.5 0 1.3.6 1.6.5.4.8 1.3.6 1.9-.3.7.1 1.3.9 1.3s1.2-.3.9-.5c-.3-.3.3-1.5 1.2-2.6 1.6-1.9 1.6-1.9.1-.7-1.8 1.3-4.3.6-3.3-1 .4-.5.4-.9.1-.9-.3 0-.7.4-1.1.9zM223 139c0 .6.7 1 1.5 1s1.5-.2 1.5-.4-.7-.6-1.5-1c-.8-.3-1.5-.1-1.5.4zM243.3 141.5c0 .8.4 1.5.9 1.5.4 0 .8-.4.8-.9 0-.6-.4-1.2-.8-1.5-.5-.3-.9.1-.9.9zM239 143.9c0 .6.4 1.3 1 1.6.6.3.7-.1.4-.9-.7-1.8-1.4-2.1-1.4-.7zM249 144c0 .5.3.9.8.9 1.9-.3 2.5.2 1.2 1.1-1.3.8-1.2 1 .3 1 2 0 2.2-1.1.5-2.8-1.5-1.5-2.8-1.6-2.8-.2zM223 145c0 .6.7 1 1.5 1s1.5-.2 1.5-.4-.7-.6-1.5-1c-.8-.3-1.5-.1-1.5.4zM243.9 144.2c-.5 1.8-.6 3.8-.1 3.4.7-.8 1.2-3.6.6-3.6-.2 0-.4.1-.5.2zM227.3 147.1c-.2 2.3.3 2.5 1 .4.4-.8.3-1.6-.1-1.9-.4-.3-.9.4-.9 1.5zM230.4 148.2c-1.2 1.4-1.3 1.8-.3 1 .9-.6 1.8-1 2.1-.7.2.3.5-.2.5-1 0-1.9 0-1.9-2.3.7zM251.5 150c.3.5.8 1 1.1 1 .2 0 .4-.5.4-1 0-.6-.5-1-1.1-1-.5 0-.7.4-.4 1zM222.7 151.3c-.3.8.1 1.4.8 1.4.7 0 1.1-.6.8-1.4-.3-.7-.6-1.3-.8-1.3-.2 0-.5.6-.8 1.3zM234.9 151.7c-1.3 1.6-1.2 1.7.4.4.9-.7 1.7-1.5 1.7-1.7 0-.8-.8-.3-2.1 1.3zM227.4 153.2c-1.9 2.3-1.9 2.3.2.5 1.1-.9 2.4-1.4 2.9-1 .4.5.5.2.1-.5-.9-1.6-1-1.6-3.2 1zM244.4 152.2c-.3.4.5.5 1.7.3 3-.6 3.6-1.4.9-1.2-1.2.1-2.4.5-2.6.9zM248.6 154.2c.3.5 1 .6 1.5.3 1.3-.9 1.1-1.2-.6-1.2-.8 0-1.2.4-.9.9zM251.6 154.6c-.3.9-.2 2.2.2 3.1.6 1 .9.5.9-1.6 0-3.5-.2-3.8-1.1-1.5zM241.3 157.5c0 .8.4 1.2.9.9.5-.3.6-1 .3-1.5-.9-1.3-1.2-1.1-1.2.6zM223.5 157.9c-.3.5-.2 1.2.3 1.5.5.3.9-.1.9-.9 0-1.7-.3-1.9-1.2-.6zM226 157.5c0 .2.6.8 1.3 1.4 1 .8 1.4.7 1.4-.2 0-.8-.6-1.4-1.4-1.4-.7 0-1.3.1-1.3.2zM233.5 158c-.3.5-.1 1 .4 1 .6 0 1.1-.5 1.1-1 0-.6-.2-1-.4-1-.3 0-.8.4-1.1 1zM237.5 158c-.3.5-.1 1 .4 1 .6 0 1.1-.5 1.1-1 0-.6-.2-1-.4-1-.3 0-.8.4-1.1 1zM247.9 158.7c-1.3 1.6-1.2 1.7.4.4.9-.7 1.7-1.5 1.7-1.7 0-.8-.8-.3-2.1 1.3zM244 160c-.9.6-1 1-.3 1 .6 0 1.5-.5 1.8-1 .8-1.2.4-1.2-1.5 0zM251.5 163c-.3.5-.2 1.8.4 2.7.7 1.4.9 1.2.8-1-.2-3-.3-3.1-1.2-1.7zM224 164.5c-.7.9-1.1 1.7-.9 2 .3.2 1-.5 1.7-1.5 1.4-2.4 1-2.6-.8-.5zM227.6 164.2c.3.5 1 .6 1.5.3 1.3-.9 1.1-1.2-.6-1.2-.8 0-1.2.4-.9.9zM231.5 164c-.3.5-.1 1 .4 1 .6 0 1.1-.5 1.1-1 0-.6-.2-1-.4-1-.3 0-.8.4-1.1 1zM235.5 164c.3.5.8 1 1.1 1 .2 0 .4-.5.4-1 0-.6-.5-1-1.1-1-.5 0-.7.4-.4 1zM243 164.1c0 .5.5.7 1 .4.6-.3 1-.8 1-1.1 0-.2-.4-.4-1-.4-.5 0-1 .5-1 1.1zM225.6 166.7c-.6 1.4-.5 1.5.5.6.7-.7 1-1.5.7-1.8-.3-.3-.9.2-1.2 1.2zM231.5 168c.3.5.8 1 1.1 1 .2 0 .4-.5.4-1 0-.6-.5-1-1.1-1-.5 0-.7.4-.4 1zM235 168c0 .5.5 1 1.1 1 .5 0 .7-.5.4-1-.3-.6-.8-1-1.1-1-.2 0-.4.4-.4 1zM250.8 170.7c.7.3 1.6.2 1.9-.1.4-.3-.2-.6-1.3-.5-1.1 0-1.4.3-.6.6zM227.5 171.7c.3.3 0 1.1-.5 1.8-.7.8-.5 1.2.4 1.2 1.4 0 1.6-2.2.3-3.2-.4-.3-.5-.2-.2.2zM234.6 172.2c.3.5 1 .6 1.5.3 1.3-.9 1.1-1.2-.6-1.2-.8 0-1.2.4-.9.9zM248.5 174.1c-.8 1.2 0 2.2 2 2.5.8.1 1.3-.2.9-.7-.3-.5-1-.6-1.6-.3-.7.5-.9.1-.5-.9.7-1.9.2-2.3-.8-.6zM251.5 174c.3.5.8 1 1.1 1 .2 0 .4-.5.4-1 0-.6-.5-1-1.1-1-.5 0-.7.4-.4 1zM235 175.4c0 .2.7.7 1.6 1 .8.3 1.2.2.9-.4-.6-1-2.5-1.4-2.5-.6zM222.8 176.7c.6.2 1 .9.7 1.3-.3.5 0 1.2.6 1.6.8.4.9.3.5-.4s-.1-1.2.6-1.2c.9 0 .9-.3-.2-1-.8-.5-1.9-.9-2.5-.9-.5 0-.4.3.3.6zM227.3 178.7c0 .9.4 1 1.4.2.7-.6 1.3-1.2 1.3-1.4 0-.1-.6-.2-1.3-.2-.8 0-1.4.6-1.4 1.4zM246 177.4c0 .2.8 1 1.8 1.7 1.5 1.3 1.6 1.2.3-.4s-2.1-2.1-2.1-1.3zM250.8 178.7c.7.3 1.6.2 1.9-.1.4-.3-.2-.6-1.3-.5-1.1 0-1.4.3-.6.6zM235.9 180.7c-1.3 1.6-1.2 1.7.4.4.9-.7 1.7-1.5 1.7-1.7 0-.8-.8-.3-2.1 1.3zM243.1 179.3c.2.1 1.3.9 2.4 1.7 1.9 1.4 1.9 1.4.6-.3-.7-.9-1.8-1.7-2.4-1.7-.6 0-.8.1-.6.3zM250 181.4c0 .2.7.6 1.5 1 .8.3 1.5.1 1.5-.4 0-.6-.7-1-1.5-1s-1.5.2-1.5.4zM229.7 183.1c1.2 1.5 5.5 2 6.8.8.3-.3-.7-.5-2.2-.4-1.6.1-3.5-.3-4.3-.9-1.3-.9-1.3-.9-.3.5zM244.4 183.8c.4.3 1.4.7 2.2.8.9.1 1.3 0 1-.4-.4-.3-1.4-.7-2.2-.8-.9-.1-1.3 0-1 .4zM249.4 184.7c.3 1.9 3.6 3.2 3.6 1.4 0-.6-.7-.8-1.5-.5-1.1.5-1.3.2-.9-1 .3-.9.2-1.6-.4-1.6-.6 0-.9.8-.8 1.7zM245.3 187.5c0 .8.4 1.2.9.9.5-.3.6-1 .3-1.5-.9-1.3-1.2-1.1-1.2.6zM227 188c0 .5.5 1 1.1 1 .5 0 .7-.5.4-1-.3-.6-.8-1-1.1-1-.2 0-.4.4-.4 1zM247.6 188.7c-.6 1.4-.5 1.5.5.6.7-.7 1-1.5.7-1.8-.3-.3-.9.2-1.2 1.2zM238.7 190.7c.3.7.6 1.3.8 1.3.2 0 .5-.6.8-1.3.3-.8-.1-1.4-.8-1.4-.7 0-1.1.6-.8 1.4zM233.6 191.3c.3 1 .9 1.5 1.2 1.2.3-.3 0-1.1-.7-1.8-1-.9-1.1-.8-.5.6zM241.5 190.9c-.3.5-.2 1.2.3 1.5.5.3.9-.1.9-.9 0-1.7-.3-1.9-1.2-.6zM246.3 191.3c1.8 1.5 2.4 3.3.8 2.2-1.1-.6-3.6 3.3-2.7 4.3.3.3.6 0 .6-.7s.4-.9 1-.6c.6.3.7-.1.4-1-.4-1-.2-1.5.6-1.3 2.3.5 2.1-2.1-.2-3.2-2.1-1-2.1-1-.5.3zM229 192c-.9.6-1 1-.3 1 .6 0 1.5-.5 1.8-1 .8-1.2.4-1.2-1.5 0zM236.1 192.6c0 1.1.3 1.4.6.6.3-.7.2-1.6-.1-1.9-.3-.4-.6.2-.5 1.3zM231.3 195c.1 2.1 1 1.8 1.3-.5.1-.8-.2-1.5-.6-1.5-.5 0-.8.9-.7 2zM239.6 194.7c-.6 1.4-.5 1.5.5.6.7-.7 1-1.5.7-1.8-.3-.3-.9.2-1.2 1.2zM241.9 195.2c-.1.7-.1 1.7 0 2.2.1.5-.7.6-1.9.3-1.1-.3-2.3 0-2.7.5-.3.7-.1.8.5.4.7-.4 1.2-.2 1.2.4 0 2 3.6-.7 3.7-2.9.2-2.2-.6-3-.8-.9zM248.9 195.7c-1.2 1.6-1.2 1.7.1.7.8-.6 2.2-1.4 3-1.7 1.3-.5 1.2-.6-.1-.6-.9-.1-2.3.7-3 1.6zM226.5 196.1c-.4.6-1.3.8-2 .5-.7-.2-1.5.1-1.8.7-.3.7.3 1.3 1.4 1.3 1.1 0 1.9-.4 1.9-.8 0-.5 1-1.3 2.3-1.8 1.6-.6 1.7-.9.5-.9-.9-.1-2 .4-2.3 1zM235.3 196c-1.3.5-2.3 1.1-2.3 1.4 0 .7 4-.6 4.6-1.5.6-1 .6-1-2.3.1zM242 200c-.9.6-1 1-.3 1 .6 0 1.5-.5 1.8-1 .8-1.2.4-1.2-1.5 0zM237 201c0 .5.5 1 1.1 1 .5 0 .7-.5.4-1-.3-.6-.8-1-1.1-1-.2 0-.4.4-.4 1zM250.9 204.7c-1.3 1.6-1.2 1.7.4.4 1.6-1.3 2.1-2.1 1.3-2.1-.2 0-1 .8-1.7 1.7zM125 85.4c0 .2.7.7 1.6 1 .8.3 1.2.2.9-.4-.6-1-2.5-1.4-2.5-.6zM172 86c-1.2.7-1 .9.7.7 1.2 0 1.9-.5 1.7-.9-.6-1-.6-1-2.4.2zM177.5 86c-.3.5-.1 1 .4 1 .6 0 1.1-.5 1.1-1 0-.6-.2-1-.4-1-.3 0-.8.4-1.1 1zM181.5 85.9c-.3.5-.2 1.2.3 1.5.5.3.9-.1.9-.9 0-1.7-.3-1.9-1.2-.6zM195.5 85.9c-.3.5-.2 1.2.3 1.5.5.3.9-.1.9-.9 0-1.7-.3-1.9-1.2-.6zM237.2 85.5c.3.3 1.6.8 2.8 1 1.2.2 2 .1 1.6-.2-.4-.4-1.6-.8-2.8-1-1.2-.2-1.9-.1-1.6.2zM270.5 86c-.3.6.1.7.9.4 1.8-.7 2.1-1.4.7-1.4-.6 0-1.3.4-1.6 1zM106.8 86.7c.6.2 1.8.2 2.5 0 .6-.3.1-.5-1.3-.5-1.4 0-1.9.2-1.2.5zM112 87.4c.7.7 1.3.7 2 0 .6-.6.3-1-1-1s-1.6.4-1 1zM212 87.4c.7.7 1.3.7 2 0 .6-.6.3-1-1-1s-1.6.4-1 1zM182.9 89.7c-1.3 1.6-1.2 1.7.4.4.9-.7 1.7-1.5 1.7-1.7 0-.8-.8-.3-2.1 1.3zM174 94.9c0 .7-.5.9-1.2.5-.7-.5-.8-.3-.3.5.5.9 1 1 1.8.2.6-.6.8-1.4.4-1.8-.4-.3-.7-.1-.7.6zM177.5 96.1c.3 1.5 0 1.9-1 1.5-.8-.3-1.5-.1-1.5.5s.8.9 1.8.7c.9-.2 1.6-1 1.4-1.7-.2-.9.3-1.1 1.3-.8 2.2.9 1.9 0-.4-1.3-1.7-.9-1.9-.7-1.6 1.1zM297 102.1c0 .5.5.7 1 .4.6-.3 1-.8 1-1.1 0-.2-.4-.4-1-.4-.5 0-1 .5-1 1.1zM173.4 103.9c.4.5.1 1.2-.4 1.4-.6.3-.5.4.2.3 1.5-.3 2.3-2.6.8-2.6-.6 0-.9.4-.6.9zM298.6 105.8c-.3.5.1.9.9.9s1.2-.4.9-.9c-.3-.4-.7-.8-.9-.8-.2 0-.6.4-.9.8zM174.3 106.7c-.9.3-.9 1.1.3 2.9 1 1.4 1.2 2.4.6 2.4s-1.5-.8-2.1-1.8c-.9-1.5-1-1.4-.8.5 0 1.2.3 2 .5 1.8.3-.2 1.2 0 2.1.4 1.3.8 1.7.4 1.7-2 .1-1.6-.2-2.6-.7-2.3-.5.3-.9.1-.9-.5 0-.5.6-1.2 1.3-1.4.6-.3.8-.5.2-.5-.5 0-1.6.2-2.2.5zM301 110c0 .5.5 1 1.1 1 .5 0 .7-.5.4-1-.3-.6-.8-1-1.1-1-.2 0-.4.4-.4 1zM298.5 114c-.3.6.1.7.9.4 1.8-.7 2.1-1.4.7-1.4-.6 0-1.3.4-1.6 1zM174 118c0 .5.5 1 1.1 1 .5 0 .7-.5.4-1-.3-.6-.8-1-1.1-1-.2 0-.4.4-.4 1zM298 117.4c0 .2.8 1 1.8 1.7 1.5 1.3 1.6 1.2.3-.4s-2.1-2.1-2.1-1.3zM56.5 122c-.3.6.1.7.9.4 1.8-.7 2.1-1.4.7-1.4-.6 0-1.3.4-1.6 1zM61.5 122c.3.5.8 1 1.1 1 .2 0 .4-.5.4-1 0-.6-.5-1-1.1-1-.5 0-.7.4-.4 1zM73.4 121.8c.9 1.5-1.2 2.6-2.8 1.3-.9-.8-1.3-.7-1.3.2 0 1.7 3.3 1.9 4.7.2.8-1 .8-1.5-.1-2.1-.7-.4-.9-.3-.5.4zM83 122.2c0 1.1 1.2 1 3-.2 1.2-.7 1-.9-.8-.7-1.2 0-2.2.5-2.2.9zM159 121.9c0 .5.8 1.5 1.8 2.2 1.5 1.2 1.6 1.2.5-.2-.7-.9-1-1.9-.6-2.2.3-.4.1-.7-.5-.7-.7 0-1.2.4-1.2.9zM169.5 122c-.3.5-.3 1 .2 1 .4.1-.3.7-1.7 1.5s-2 1.4-1.4 1.5c1.4 0 5.2-2.9 3.9-3.1-.5 0 .1-.5 1.5-.9 2.3-.7 2.3-.8.3-.9-1.2-.1-2.5.3-2.8.9zM147.3 124.5c.4 3.6 1.3 3.9 1.2.5 0-1.7-.3-3-.8-3-.4 0-.6 1.1-.4 2.5zM150.7 123.4c-.4.9.2 1.2 1.8 1 1.3-.1 2.9.4 3.6 1.2.6.8 1.6 1.4 2.2 1.4 1.1 0-3.2-3.5-4.3-3.5-.3 0-1-.4-1.6-.8-.7-.4-1.4-.1-1.7.7zM175.3 123.3c.3.9.2 1.9-.3 2.2-.5.3-1 0-1.3-.7-.2-.8-.3-.7-.3.2.1.8.5 1.3 1 1.2.5-.2 1.2.2 1.6.8.4.7.8.1.8-1.4s-.5-2.9-1.1-3.3c-.6-.4-.8 0-.4 1zM307.5 124c-.3.5-.1 1 .4 1 .6 0 1.1-.5 1.1-1 0-.6-.2-1-.4-1-.3 0-.8.4-1.1 1zM143.3 127.9c0 1.1.5 1.8.9 1.5.4-.3.5-1.1.1-1.9-.7-2.1-1.2-1.9-1 .4zM161.6 127.3c.3 1 .9 1.5 1.2 1.2.3-.3 0-1.1-.7-1.8-1-.9-1.1-.8-.5.6zM86.4 128.2c1 .6 2.2.6 2.6.2.5-.5-.3-1-1.8-1.1-2.2-.1-2.4 0-.8.9zM135 128.2c0 .6.3.8.7.5.3-.4 1.1.1 1.8 1 .9 1.3 1.4 1.3 2 .3.5-.8.4-1.1-.2-.7-.6.4-1.3 0-1.7-.8-.6-1.8-2.6-2-2.6-.3zM167.5 127.7c.3.3 0 1.1-.5 1.8-.7.8-.5 1.2.4 1.2 1.4 0 1.6-2.2.3-3.2-.4-.3-.5-.2-.2.2zM83.7 129.1c.7.7 1.5 1 1.8.7.3-.3-.2-.9-1.2-1.2-1.4-.6-1.5-.5-.6.5zM69.9 129.2c-.5 1.8-.6 3.8-.1 3.4.7-.8 1.2-3.6.6-3.6-.2 0-.4.1-.5.2zM78.8 129.6c.6.3 1 1 .7 1.4-.3.5-.1 1.2.5 1.5.6.4.9.1.8-.7-.2-.7.4-1.2 1.2-1 .8.2 1.2 0 .7-.4-.4-.4-1.8-.9-3-1-1.2-.2-1.6 0-.9.2zM145.5 131.1c-.4.6-.5 1.2-.2 1.5.2.3.7-.2 1-1.1.7-1.7.1-2-.8-.4zM136.6 132.3c.3 1 .9 1.5 1.2 1.2.3-.3 0-1.1-.7-1.8-1-.9-1.1-.8-.5.6zM140.4 131.8c.4.3 1.4.7 2.2.8.9.1 1.3 0 1-.4-.4-.3-1.4-.7-2.2-.8-.9-.1-1.3 0-1 .4zM158 131.4c0 .2.8 1 1.8 1.7 1.5 1.3 1.6 1.2.3-.4s-2.1-2.1-2.1-1.3zM169.6 132.5c-.9 2.6-.7 3.2.5 1.2.6-1 .9-2.1.6-2.3-.2-.3-.7.2-1.1 1.1zM175 132.5c0 .5.5 1.7 1 2.5s1 1 1 .5c0-.6-.5-1.7-1-2.5s-1-1.1-1-.5zM153.3 134.5c0 .8.4 1.2.9.9.5-.3.6-1 .3-1.5-.9-1.3-1.2-1.1-1.2.6zM305.6 133.8c-.3.5.1.9.9.9s1.2-.4.9-.9c-.3-.4-.7-.8-.9-.8-.2 0-.6.4-.9.8zM141.4 136c0 1.3.4 1.6 1 1 .7-.7.7-1.3 0-2-.6-.6-1-.3-1 1zM171.3 135.3c0 .7.9 1.4 1.9 1.4 1 .1 1.8-.3 1.8-.9 0-.6-.3-.8-.7-.5-.3.4-1.1.2-1.8-.3-.8-.7-1.2-.6-1.2.3zM86 136.5c0 .8.2 1.5.4 1.5s.6-.7 1-1.5c.3-.8.1-1.5-.4-1.5-.6 0-1 .7-1 1.5zM132.8 136.7c.6.9 1.9 1.7 3 1.8 1.2.1 1.9-.2 1.6-.7-.4-.5-1.2-.7-2-.4-.8.3-1.4-.1-1.4-.9s-.5-1.5-1-1.5c-.7 0-.8.6-.2 1.7zM84.6 140.2c.3.5 1 .6 1.5.3 1.3-.9 1.1-1.2-.6-1.2-.8 0-1.2.4-.9.9zM169 139.9c0 .6.4 1.2.8 1.5.5.3.9-.1.9-.9s-.4-1.5-.9-1.5c-.4 0-.8.4-.8.9zM173.5 141c-.3.6.1.7.9.4 1.8-.7 2.1-1.4.7-1.4-.6 0-1.3.4-1.6 1zM165.6 141.9c-.3.5.2 1.5 1.2 2.2 1.5 1.2 1.6 1.2.5-.2-.7-.9-1-1.9-.6-2.2.3-.4.4-.7 0-.7-.3 0-.8.4-1.1.9zM298.4 142.7c0 1.3.7 1.9 2.2 1.9 1.3 0 2-.4 1.7-.9-.3-.4-.7-.6-1.1-.3-.3.3-1-.1-1.6-1-1-1.3-1.2-1.3-1.2.3zM135 142.3c0 .2.6 1 1.4 1.6 1.1.9 1.6.9 2.2-.1.4-.7.4-1-.1-.6-.4.4-1.4.3-2.2-.3-.7-.6-1.3-.9-1.3-.6zM81.6 145.8c-.3.5.1.9.9.9s1.2-.4.9-.9c-.3-.4-.7-.8-.9-.8-.2 0-.6.4-.9.8zM171.5 145.9c-.3.5-.2 1.2.3 1.5.5.3.9-.1.9-.9 0-1.7-.3-1.9-1.2-.6zM87.8 148.8c.4 1.1.1 1.3-.9.7-.8-.5-1.1-.4-.6 0 1.4 1.6 3.3 1.3 3.3-.5 0-.9-.6-1.7-1.2-1.7-.7 0-1 .7-.6 1.5zM81.6 149.8c-.3.4.4.9 1.5.9 2.3.2 2.5-.3.4-1-.8-.4-1.6-.3-1.9.1zM143 150c0 .5.5 1 1.1 1 .5 0 .7-.5.4-1-.3-.6-.8-1-1.1-1-.2 0-.4.4-.4 1zM299.6 150.5c-1 .7-1.6 1.8-1.5 2.3.2.6 1.2-.1 2.2-1.4 2.1-2.7 1.9-2.9-.7-.9zM133.7 151.1c.7.7 1.5 1 1.8.7.3-.3-.2-.9-1.2-1.2-1.4-.6-1.5-.5-.6.5zM158.7 152.1c.7.7 1.5 1 1.8.7.3-.3-.2-.9-1.2-1.2-1.4-.6-1.5-.5-.6.5zM175 152.1c0 .5.5.7 1 .4.6-.3 1-.8 1-1.1 0-.2-.4-.4-1-.4-.5 0-1 .5-1 1.1zM87.5 152.9c.3.5 0 1.1-.7 1.3-.7.3-.5.7.6 1.1.9.4 1.5.3 1.1-.2-.3-.5 0-1.1.7-1.3.7-.3.5-.7-.6-1.1-.9-.4-1.5-.3-1.1.2zM81.6 154.2c.3.4 1.1.5 1.9.1 2.1-.7 1.9-1.2-.4-1-1.1 0-1.8.5-1.5.9zM303 154c0 .5.5 1 1 1 .6 0 1-.5 1-1 0-.6-.4-1-1-1-.5 0-1 .4-1 1zM135 156.2c0 .4.4.8.9.8.6 0 1.2-.4 1.5-.8.3-.5-.1-.9-.9-.9s-1.5.4-1.5.9zM299.1 156.6c.7.8.6 1.4-.3 1.7-.7.3-.3.4.9.4 1.5-.1 1.9-.5 1.3-1.3-.6-.6-.8-1.3-.5-1.6.3-.2-.2-.5-1-.5-1 0-1.2.4-.4 1.3zM135.3 159.5c0 .8.4 1.2.9.9.5-.3.6-1 .3-1.5-.9-1.3-1.2-1.1-1.2.6zM87.3 161.5c0 .8.4 1.2.9.9.5-.3.6-1 .3-1.5-.9-1.3-1.2-1.1-1.2.6zM81 162.1c0 .5.5.7 1 .4.6-.3 1-.8 1-1.1 0-.2-.4-.4-1-.4-.5 0-1 .5-1 1.1zM175.3 162.5c0 .8.4 1.2.9.9.4-.3.8-.9.8-1.5 0-.5-.4-.9-.8-.9-.5 0-.9.7-.9 1.5zM298.1 164.6c0 1.1.3 1.4.6.6.3-.7.2-1.6-.1-1.9-.3-.4-.6.2-.5 1.3zM305.5 164c.3.5.8 1 1.1 1 .2 0 .4-.5.4-1 0-.6-.5-1-1.1-1-.5 0-.7.4-.4 1zM134.5 166c-.3.6.1.7.9.4 1.8-.7 2.1-1.4.7-1.4-.6 0-1.3.4-1.6 1zM175.3 165.7c.4.3.1 1.3-.6 2.2-1.1 1.4-1 1.4.6.2 2-1.5 2.2-3.1.5-3.1-.6 0-.8.3-.5.7zM79.6 167.3c.3 1 .9 1.5 1.2 1.2.3-.3 0-1.1-.7-1.8-1-.9-1.1-.8-.5.6zM83.9 167.3c.8.9 1.6 1.5 1.9 1.2.3-.3 1 0 1.7.5.8.7 1.2.5 1.2-.4 0-.8-.7-1.3-1.6-1.1-.9.1-2.3-.3-3.1-.9-1.3-1-1.3-.9-.1.7zM301.6 167.3c.3 1 .9 1.5 1.2 1.2.3-.3 0-1.1-.7-1.8-1-.9-1.1-.8-.5.6zM163.9 168.7c-1.3 1.6-1.2 1.7.4.4.9-.7 1.7-1.5 1.7-1.7 0-.8-.8-.3-2.1 1.3zM173.1 171.3c-.8 1-.7 1.4.2 1.4.8 0 1.4-.6 1.4-1.4 0-.7-.1-1.3-.2-1.3-.2 0-.8.6-1.4 1.3zM143.6 172.7c-.6 1.4-.5 1.5.5.6.7-.7 1-1.5.7-1.8-.3-.3-.9.2-1.2 1.2zM81 174.1c0 .5.5.7 1 .4.6-.3 1-.8 1-1.1 0-.2-.4-.4-1-.4-.5 0-1 .5-1 1.1zM299.7 174.4c-1 .8-1.4 1.6-1 1.9.5.3 1.4-.3 2.1-1.4 1.4-2.2 1.3-2.3-1.1-.5zM305.3 174.5c0 .8.4 1.2.9.9.5-.3.6-1 .3-1.5-.9-1.3-1.2-1.1-1.2.6zM173.9 174.2c-.5 1.8-.6 3.8-.1 3.4.7-.8 1.2-3.6.6-3.6-.2 0-.4.1-.5.2zM169.6 178.2c.3.5 1 .6 1.5.3 1.3-.9 1.1-1.2-.6-1.2-.8 0-1.2.4-.9.9zM300.6 179.5c-1.1.8-1.5 1.5-.9 1.5s1.6-.7 2.3-1.5c1.6-1.9 1.1-1.9-1.4 0zM135 180c0 .5.5 1 1 1 .6 0 1-.5 1-1 0-.6-.4-1-1-1-.5 0-1 .4-1 1zM139.6 180.2c.3.5 1 .6 1.5.3 1.3-.9 1.1-1.2-.6-1.2-.8 0-1.2.4-.9.9zM175.3 180.5c0 .8.4 1.2.9.9.4-.3.8-.9.8-1.5 0-.5-.4-.9-.8-.9-.5 0-.9.7-.9 1.5zM81.3 181.5c0 .8.4 1.2.9.9.5-.3.6-1 .3-1.5-.9-1.3-1.2-1.1-1.2.6zM87.4 182.5c.1 1.3.5 2.7.8 3 .4.4.5-.1.4-1.2-.2-1 .1-2.1.6-2.4.5-.3.3-.9-.5-1.2-1-.4-1.3.2-1.3 1.8zM169.6 181.8c-.3.5.1.9.9.9s1.2-.4.9-.9c-.3-.4-.7-.8-.9-.8-.2 0-.6.4-.9.8zM303.5 183.1c-.4.6-.5 1.2-.2 1.5.2.3.7-.2 1-1.1.7-1.7.1-2-.8-.4zM175.6 186.7c-.6 1.4-.5 1.5.5.6.7-.7 1-1.5.7-1.8-.3-.3-.9.2-1.2 1.2zM138.6 188.2c.3.5 1 .6 1.5.3 1.3-.9 1.1-1.2-.6-1.2-.8 0-1.2.4-.9.9zM81 190.1c0 .5.5.7 1 .4.6-.3 1-.8 1-1.1 0-.2-.4-.4-1-.4-.5 0-1 .5-1 1.1zM134.6 189.8c-.3.5.1.9.9.9s1.2-.4.9-.9c-.3-.4-.7-.8-.9-.8-.2 0-.6.4-.9.8zM298.7 191.1c.4 1.3.8 1.8 1.1 1 .2-.7-.1-1.8-.6-2.3-.8-.8-.9-.4-.5 1.3zM88.6 192.3c.3 1 .9 1.5 1.2 1.2.3-.3 0-1.1-.7-1.8-1-.9-1.1-.8-.5.6zM175.5 192c-.3.5-.1 1 .4 1 .6 0 1.1-.5 1.1-1 0-.6-.2-1-.4-1-.3 0-.8.4-1.1 1zM81.6 193.3c.3 1 .9 1.5 1.2 1.2.3-.3 0-1.1-.7-1.8-1-.9-1.1-.8-.5.6zM134.6 194.2c.3.5 1 .6 1.5.3 1.3-.9 1.1-1.2-.6-1.2-.8 0-1.2.4-.9.9zM172.6 195.5c-1.1.8-1.5 1.5-.9 1.5s1.6-.7 2.3-1.5c1.6-1.9 1.1-1.9-1.4 0zM89.1 196.6c0 1.1.3 1.4.6.6.3-.7.2-1.6-.1-1.9-.3-.4-.6.2-.5 1.3zM175 198c0 .5.5 1 1 1 .6 0 1-.5 1-1 0-.6-.4-1-1-1-.5 0-1 .4-1 1zM305.6 197.8c-.3.5.1.9.9.9s1.2-.4.9-.9c-.3-.4-.7-.8-.9-.8-.2 0-.6.4-.9.8zM133.6 199.3c.3 1 .9 1.5 1.2 1.2.3-.3 0-1.1-.7-1.8-1-.9-1.1-.8-.5.6zM170.4 200.2c-.4.7-.3.8.5.4.6-.4 2-.2 2.9.6 1.5 1.2 1.6 1.1.3-.5-1.6-2-2.7-2.2-3.7-.5zM299.6 199.8c-.3.5.1.9.9.9s1.2-.4.9-.9c-.3-.4-.7-.8-.9-.8-.2 0-.6.4-.9.8zM171.5 204c.3.5.8 1 1.1 1 .2 0 .4-.5.4-1 0-.6-.5-1-1.1-1-.5 0-.7.4-.4 1zM174.6 204.2c.3.4.9.8 1.5.8.5 0 .9-.4.9-.8 0-.5-.7-.9-1.5-.9s-1.2.4-.9.9zM78.6 206.2c.3.5 1 .6 1.5.3 1.3-.9 1.1-1.2-.6-1.2-.8 0-1.2.4-.9.9zM299.5 207c.8.9 2.2 1.7 3 1.7 1.7 0 .9-1.2-.8-1.2-.7-.1-1.1-.6-1-1.1.1-.6-.5-1.1-1.3-1.1-1.2 0-1.2.3.1 1.7zM305.6 206.2c.3.5 1 .6 1.5.3 1.3-.9 1.1-1.2-.6-1.2-.8 0-1.2.4-.9.9zM133.5 207.1c-.4.6-.5 1.2-.2 1.5.2.3.7-.2 1-1.1.7-1.7.1-2-.8-.4zM174 208c.8.5 2 1 2.5 1 .6 0 .3-.5-.5-1s-1.9-1-2.5-1c-.5 0-.3.5.5 1zM87.5 210.9c.1.8.7 1.6 1.4 1.7.7.2.7 0 .1-.3-.7-.3-.8-.9-.1-1.7.8-.9.7-1.3-.3-1.3-.8 0-1.3.7-1.1 1.6zM171.5 210c.3.5.8 1 1.1 1 .2 0 .4-.5.4-1 0-.6-.5-1-1.1-1-.5 0-.7.4-.4 1zM298 209.4c0 .2.8 1 1.8 1.7 1.5 1.3 1.6 1.2.3-.4s-2.1-2.1-2.1-1.3zM134.2 211.6c1 1 2 1.6 2.2 1.3.3-.3-.5-1.1-1.7-1.8-2.1-1.3-2.1-1.2-.5.5zM138.6 212.2c.3.5 1 .6 1.5.3 1.3-.9 1.1-1.2-.6-1.2-.8 0-1.2.4-.9.9zM163.5 216c.3.5.8 1 1.1 1 .2 0 .4-.5.4-1 0-.6-.5-1-1.1-1-.5 0-.7.4-.4 1zM300.6 216.2c.3.5 1 .6 1.5.3 1.3-.9 1.1-1.2-.6-1.2-.8 0-1.2.4-.9.9zM167.6 220.2c.3.5 1 .6 1.5.3 1.3-.9 1.1-1.2-.6-1.2-.8 0-1.2.4-.9.9zM87.6 221.8c-.2.4-.1 1.4.4 2.2.7 1.1.9.9.7-.8-.1-2.4-.3-2.6-1.1-1.4zM84 226c-.8.5-1 1-.5 1 .6 0 1.7-.5 2.5-1s1.1-1 .5-1c-.5 0-1.7.5-2.5 1zM87.6 227.8c-.3.5.1.9.9.9s1.2-.4.9-.9c-.3-.4-.7-.8-.9-.8-.2 0-.6.4-.9.8zM291.9 239.7c0 .5-.2 1.6-.4 2.6-.2 1.1-.1 1.6.3 1.3.8-.8 1.4-4.6.7-4.6-.3 0-.5.3-.6.7zM305 239.4c0 .2.7.7 1.6 1 .8.3 1.2.2.9-.4-.6-1-2.5-1.4-2.5-.6zM117.3 241.5c0 .8.4 1.2.9.9.5-.3.6-1 .3-1.5-.9-1.3-1.2-1.1-1.2.6zM238.4 241.6c-1.8 1.4-1.8 1.4.6.3 3.1-1.4 3.6-1.9 2.4-1.9-.6 0-1.9.7-3 1.6zM243.5 241.1c-.4.6-.5 1.2-.2 1.5.2.3.7-.2 1-1.1.7-1.7.1-2-.8-.4zM230.7 242.6c.6 1.7 3.1 2.5 3.8 1.3.4-.5.3-.9-.2-.8-2 .3-2.7-.2-1.3-1.1 1.2-.7 1-.9-.7-.8-1.2.1-1.9.7-1.6 1.4zM243.9 244.3c-1.6 2.1-1.6 2.3.1 2.3 1.1 0 1.6-.5 1.2-1.5-.3-.9-.1-1.2.6-.7.8.5 1 .2.6-.8-.7-1.9-.6-2-2.5.7zM197 244c0 .5.5 1 1.1 1 .5 0 .7-.5.4-1-.3-.6-.8-1-1.1-1-.2 0-.4.4-.4 1zM207.9 244.7c-1.3 1.6-1.2 1.7.4.4 1.6-1.3 2.1-2.1 1.3-2.1-.2 0-1 .8-1.7 1.7zM215.9 244.7c-1.3 1.6-1.2 1.7.4.4 1.6-1.3 2.1-2.1 1.3-2.1-.2 0-1 .8-1.7 1.7zM238.6 243.8c-.3.5.1.9.9.9s1.2-.4.9-.9c-.3-.4-.7-.8-.9-.8-.2 0-.6.4-.9.8zM250.5 244c-.8 1.3.9 2 2.4 1.1 1-.6.9-1-.3-1.4-.8-.3-1.8-.2-2.1.3zM219.6 247.3c.3 1 .9 1.5 1.2 1.2.3-.3 0-1.1-.7-1.8-1-.9-1.1-.8-.5.6zM246.6 247.8c-.3.5.1.9.9.9s1.2-.4.9-.9c-.3-.4-.7-.8-.9-.8-.2 0-.6.4-.9.8zM251.3 248.5c0 .7.6 1.1 1.4.8.7-.3 1.3-.6 1.3-.8 0-.2-.6-.5-1.3-.8-.8-.3-1.4.1-1.4.8zM293 250c0 .5.5 1 1.1 1 .5 0 .7-.5.4-1-.3-.6-.8-1-1.1-1-.2 0-.4.4-.4 1zM246 254c.8.5 2 1 2.5 1 .6 0 .3-.5-.5-1s-1.9-1-2.5-1c-.5 0-.3.5.5 1zM291 257.9c0 .6.4 1.3 1 1.6.6.3.7-.1.4-.9-.7-1.8-1.4-2.1-1.4-.7zM257.6 261.9c-.3.5.2 1.5 1.2 2.2 1.5 1.2 1.6 1.2.5-.2-.7-.9-1-1.9-.6-2.2.3-.4.4-.7 0-.7-.3 0-.8.4-1.1.9z"/></svg>